<svg id="Layer_1" data-name="Layer 1" xmlns="http://www.w3.org/2000/svg" viewBox="0 0 492.96 492.96"><defs><style>.cls-1{fill:#7380ec;}.cls-2{fill:#f9f9f9;}</style></defs><circle class="cls-1" cx="246.48" cy="246.48" r="246.48"/><path class="cls-2" d="M171,415.4c5.44-16.31,10.92-32.62,16.26-49,.61-1.87,1.59-2.2,3.29-2.2q62.94,0,125.89,0c1.7,0,2.68.33,3.28,2.2,5.35,16.34,10.83,32.65,16.27,49Z"/><path class="cls-2" d="M59.76,269.66c1.12-.1,2.24-.28,3.36-.29,36.54,0,73.08,0,109.62-.07,2.93,0,3.73.65,3.61,3.67-1,25.39-22,49-47.62,53.32-29.37,4.92-56.65-11.19-66-39.09-1.18-3.51-2-7.15-2.94-10.73Z"/><path class="cls-2" d="M446,243.84c-8.78,0-17-.13-25.17.08-2.62.06-3.08-1.47-3.82-3.23q-13.22-31.26-26.48-62.49c-.42-1-.57-2.19-1.87-3.15-3.95,9.29-7.85,18.46-11.73,27.64-5.39,12.73-10.8,25.45-16.08,38.23-.89,2.14-1.94,3-4.39,3-8-.18-16.05-.07-24.66-.07L369.36,155c-1.19-.94-2.35-.55-3.41-.55-32,0-64.08,0-96.12-.11-3.19,0-3.56,1.09-3.55,3.81q.09,98.21.12,196.4c0,3.35-.67,4.54-4.25,4.36-6.29-.33-12.61-.17-18.92-.05-2,0-2.77-.55-2.55-2.56a36.63,36.63,0,0,0,0-3.78q0-97.06.09-194.12c0-3.36-.83-4.07-4.1-4.06-31.66.14-63.33.09-95,.09h-4.27l37.81,89.41h-18c-9.75,0-9.74,0-13.54-9Q131.11,205,118.45,175.18c-1.43.51-1.45,1.82-1.86,2.79C107.7,198.9,98.8,219.84,90,240.84c-1,2.35-2.17,3.13-4.72,3.07-7.92-.19-15.86-.07-24.33-.07,1.39-3.31,2.65-6.28,3.9-9.24,14.41-34,28.87-68,43.11-102.13,1.28-3.05,2.85-3.68,5.82-3.68,41,.09,82,0,123,.13,3,0,4.09-.47,4-3.79-.27-8.82-.13-17.66-.06-26.49A4.93,4.93,0,0,0,238.48,94c-9.48-6.91-12.81-18.54-8.74-29.6a25.46,25.46,0,0,1,48.53,3,25.14,25.14,0,0,1-9.52,26.47,5.26,5.26,0,0,0-2.47,4.94c.12,8.83.19,17.67,0,26.49-.08,3,.83,3.66,3.73,3.66,41.12-.1,82.24,0,123.36-.15,3.12,0,4.49.93,5.71,3.83q22.6,53.9,45.49,107.67C445,241.29,445.38,242.32,446,243.84Z"/><path class="cls-2" d="M389,269.36c18.29,0,36.58.08,54.86-.07,2.91,0,3.5.72,3.36,3.54-1.33,26.66-22.92,50.14-49.48,53.64-31.34,4.13-58.4-14.29-65.72-44.75-3-12.36-3-12.36,9.3-12.36Z"/></svg>