<?xml version="1.0" encoding="utf-8"?>
<svg id="Layer_1" data-name="Layer 1" viewBox="0 0 404.835 111.27" xmlns="http://www.w3.org/2000/svg">
    <defs>
        <style>.cls-1{fill:#002d74;}.cls-2{fill:#009ade;}</style>
    </defs>
    <rect class="cls-1" x="132.501" y="36.771" width="3.01" height="16.9"/>
    <path class="cls-1" d="M 139.091 42.211 L 141.811 42.211 L 141.811 44.051 C 142.103 43.43 142.564 42.903 143.141 42.531 C 143.796 42.082 144.577 41.851 145.371 41.871 C 146.034 41.852 146.691 41.989 147.291 42.271 C 147.796 42.504 148.244 42.845 148.601 43.271 C 148.947 43.71 149.202 44.213 149.351 44.751 C 149.511 45.307 149.592 45.883 149.591 46.461 L 149.591 53.631 L 146.731 53.631 L 146.731 47.321 C 146.725 46.987 146.702 46.653 146.661 46.321 C 146.617 45.972 146.512 45.634 146.351 45.321 C 146.195 45.027 145.969 44.776 145.691 44.591 C 145.359 44.385 144.972 44.284 144.581 44.301 C 144.167 44.288 143.756 44.385 143.391 44.581 C 143.066 44.75 142.782 44.989 142.561 45.281 C 142.342 45.584 142.176 45.922 142.071 46.281 C 141.964 46.648 141.91 47.029 141.911 47.411 L 141.911 53.721 L 139.041 53.721 L 139.091 42.211 Z"/>
    <path class="cls-1" d="M 151.321 44.501 L 151.321 42.211 L 153.321 42.211 L 153.321 38.891 L 156.141 38.891 L 156.141 42.211 L 159.001 42.211 L 159.001 44.501 L 156.141 44.501 L 156.141 49.821 C 156.126 50.26 156.218 50.696 156.411 51.091 C 156.7 51.469 157.171 51.66 157.641 51.591 C 157.849 51.59 158.057 51.57 158.261 51.531 C 158.468 51.498 158.67 51.438 158.861 51.351 L 158.961 53.591 C 158.668 53.702 158.362 53.779 158.051 53.821 C 157.721 53.876 157.386 53.903 157.051 53.901 C 156.412 53.928 155.775 53.819 155.181 53.581 C 154.736 53.389 154.347 53.086 154.051 52.701 C 153.766 52.32 153.571 51.879 153.481 51.411 C 153.37 50.899 153.317 50.376 153.321 49.851 L 153.321 44.501 L 151.321 44.501 Z"/>
    <path class="cls-1" d="M 169.171 46.791 C 169.17 46.452 169.116 46.114 169.011 45.791 C 168.916 45.465 168.749 45.164 168.521 44.911 C 168.292 44.646 168.004 44.437 167.681 44.301 C 167.298 44.142 166.886 44.063 166.471 44.071 C 165.672 44.048 164.894 44.327 164.291 44.851 C 163.693 45.349 163.33 46.074 163.291 46.851 L 169.171 46.791 Z M 172.031 48.081 L 172.031 48.461 C 172.041 48.588 172.041 48.715 172.031 48.841 L 163.321 48.841 C 163.347 49.24 163.456 49.628 163.641 49.981 C 163.821 50.322 164.07 50.621 164.371 50.861 C 164.671 51.11 165.009 51.309 165.371 51.451 C 165.756 51.591 166.162 51.662 166.571 51.661 C 167.197 51.681 167.819 51.547 168.381 51.271 C 168.864 51.016 169.281 50.654 169.601 50.211 L 171.511 51.741 C 170.36 53.282 168.512 54.142 166.591 54.031 C 165.753 54.04 164.919 53.898 164.131 53.611 C 163.413 53.35 162.753 52.949 162.191 52.431 C 161.631 51.909 161.191 51.271 160.901 50.561 C 160.578 49.761 160.418 48.904 160.431 48.041 C 160.422 47.179 160.582 46.323 160.901 45.521 C 161.187 44.797 161.619 44.14 162.171 43.591 C 162.725 43.051 163.381 42.626 164.101 42.341 C 164.866 42.045 165.681 41.896 166.501 41.901 C 167.253 41.892 168 42.028 168.701 42.301 C 169.368 42.555 169.969 42.955 170.461 43.471 C 170.978 44.027 171.373 44.684 171.621 45.401 C 171.909 46.275 172.047 47.191 172.031 48.111"/>
    <path class="cls-1" d="M 174.801 42.211 L 177.551 42.211 L 177.551 44.121 L 177.601 44.121 C 177.898 43.473 178.356 42.912 178.931 42.491 C 179.515 42.078 180.216 41.861 180.931 41.871 L 181.291 41.871 C 181.401 41.855 181.512 41.855 181.621 41.871 L 181.621 44.501 C 181.461 44.456 181.297 44.426 181.131 44.411 L 180.741 44.411 C 180.191 44.384 179.645 44.509 179.161 44.771 C 178.789 44.982 178.471 45.277 178.231 45.631 C 178.023 45.935 177.871 46.274 177.781 46.631 C 177.711 46.903 177.671 47.181 177.661 47.461 L 177.661 53.601 L 174.791 53.601 L 174.801 42.211 Z"/>
    <path class="cls-1" d="M 183.491 42.211 L 186.211 42.211 L 186.211 44.051 L 186.261 44.051 C 186.556 43.432 187.017 42.906 187.591 42.531 C 188.246 42.082 189.027 41.851 189.821 41.871 C 190.484 41.851 191.142 41.988 191.741 42.271 C 192.246 42.504 192.694 42.845 193.051 43.271 C 193.4 43.708 193.656 44.212 193.801 44.751 C 193.961 45.307 194.042 45.883 194.041 46.461 L 194.041 53.631 L 191.181 53.631 L 191.181 47.321 C 191.175 46.987 191.152 46.653 191.111 46.321 C 191.072 45.971 190.966 45.632 190.801 45.321 C 190.645 45.027 190.419 44.776 190.141 44.591 C 189.809 44.385 189.422 44.284 189.031 44.301 C 188.617 44.288 188.206 44.385 187.841 44.581 C 187.516 44.75 187.232 44.989 187.011 45.281 C 186.792 45.584 186.626 45.922 186.521 46.281 C 186.414 46.648 186.36 47.029 186.361 47.411 L 186.361 53.721 L 183.491 53.721 L 183.491 42.211 Z"/>
    <path class="cls-1" d="M 204.451 48.441 L 203.811 48.441 C 203.341 48.441 202.811 48.441 202.351 48.501 C 201.873 48.537 201.4 48.624 200.941 48.761 C 200.551 48.879 200.187 49.073 199.871 49.331 C 199.585 49.583 199.427 49.95 199.441 50.331 C 199.433 50.571 199.495 50.807 199.621 51.011 C 199.738 51.192 199.896 51.342 200.081 51.451 C 200.284 51.565 200.503 51.646 200.731 51.691 C 200.965 51.739 201.203 51.763 201.441 51.761 C 202.268 51.82 203.083 51.534 203.691 50.971 C 204.223 50.386 204.497 49.611 204.451 48.821 L 204.451 48.441 Z M 204.501 52.211 L 204.431 52.211 C 204.104 52.758 203.62 53.194 203.041 53.461 C 202.368 53.799 201.624 53.967 200.871 53.951 C 200.386 53.948 199.902 53.888 199.431 53.771 C 198.936 53.66 198.465 53.46 198.041 53.181 C 197.616 52.894 197.258 52.519 196.991 52.081 C 196.698 51.571 196.553 50.989 196.571 50.401 C 196.535 49.646 196.798 48.906 197.301 48.341 C 197.83 47.822 198.474 47.435 199.181 47.211 C 200.002 46.927 200.855 46.749 201.721 46.681 C 202.651 46.591 203.561 46.541 204.451 46.541 L 204.451 46.211 C 204.496 45.58 204.198 44.972 203.671 44.621 C 203.119 44.27 202.475 44.092 201.821 44.111 C 201.221 44.113 200.628 44.243 200.081 44.491 C 199.566 44.711 199.098 45.026 198.701 45.421 L 197.221 43.681 C 197.868 43.075 198.634 42.612 199.471 42.321 C 200.301 42.017 201.178 41.861 202.061 41.861 C 202.921 41.836 203.778 41.982 204.581 42.291 C 205.759 42.747 206.643 43.746 206.951 44.971 C 207.099 45.533 207.173 46.111 207.171 46.691 L 207.171 53.691 L 204.501 53.691 L 204.501 52.211 Z"/>
    <path class="cls-1" d="M 208.631 44.501 L 208.631 42.211 L 210.631 42.211 L 210.631 38.891 L 213.451 38.891 L 213.451 42.211 L 216.321 42.211 L 216.321 44.501 L 213.451 44.501 L 213.451 49.821 C 213.436 50.26 213.528 50.696 213.721 51.091 C 214.01 51.469 214.481 51.66 214.951 51.591 C 215.159 51.59 215.367 51.57 215.571 51.531 C 215.778 51.498 215.98 51.438 216.171 51.351 L 216.271 53.591 C 215.978 53.702 215.672 53.779 215.361 53.821 C 215.031 53.877 214.696 53.903 214.361 53.901 C 213.725 53.929 213.091 53.82 212.501 53.581 C 212.051 53.392 211.659 53.088 211.361 52.701 C 211.076 52.32 210.881 51.879 210.791 51.411 C 210.68 50.899 210.627 50.376 210.631 49.851 L 210.631 44.501 L 208.631 44.501 Z"/>
    <path class="cls-1" d="M 218.441 42.211 L 221.321 42.211 L 221.321 53.671 L 218.461 53.671 L 218.441 42.211 Z M 218.031 38.321 C 218.028 37.863 218.216 37.424 218.551 37.111 C 218.896 36.769 219.366 36.585 219.851 36.601 C 220.338 36.587 220.811 36.763 221.171 37.091 C 221.526 37.4 221.725 37.851 221.711 38.321 C 221.72 38.791 221.523 39.24 221.171 39.551 C 220.809 39.876 220.337 40.051 219.851 40.041 C 219.365 40.055 218.894 39.867 218.551 39.521 C 218.216 39.213 218.027 38.777 218.031 38.321"/>
    <path class="cls-1" d="M 227.031 47.891 C 227.033 48.346 227.104 48.798 227.241 49.231 C 227.366 49.662 227.569 50.065 227.841 50.421 C 228.113 50.772 228.454 51.065 228.841 51.281 C 229.79 51.734 230.893 51.734 231.841 51.281 C 232.231 51.067 232.571 50.774 232.841 50.421 C 233.113 50.063 233.319 49.661 233.451 49.231 C 233.58 48.796 233.648 48.345 233.651 47.891 C 233.649 47.441 233.582 46.993 233.451 46.561 C 233.317 46.136 233.111 45.737 232.841 45.381 C 232.571 45.031 232.23 44.742 231.841 44.531 C 230.889 44.092 229.793 44.092 228.841 44.531 C 228.454 44.744 228.114 45.033 227.841 45.381 C 227.571 45.735 227.368 46.135 227.241 46.561 C 227.103 46.991 227.032 47.44 227.031 47.891 M 224.121 47.891 C 224.043 45.402 225.577 43.145 227.921 42.301 C 228.699 42.015 229.522 41.87 230.351 41.871 C 231.183 41.87 232.009 42.016 232.791 42.301 C 233.531 42.574 234.21 42.988 234.791 43.521 C 235.353 44.06 235.802 44.706 236.111 45.421 C 236.447 46.201 236.614 47.043 236.601 47.891 C 236.614 48.743 236.447 49.588 236.111 50.371 C 235.805 51.094 235.356 51.747 234.791 52.291 C 234.212 52.837 233.533 53.265 232.791 53.551 C 232.013 53.853 231.186 54.006 230.351 54.001 C 229.52 54.007 228.695 53.854 227.921 53.551 C 227.179 53.266 226.499 52.838 225.921 52.291 C 225.36 51.744 224.911 51.091 224.601 50.371 C 224.266 49.588 224.099 48.743 224.111 47.891"/>
    <path class="cls-1" d="M 239.321 42.211 L 242.041 42.211 L 242.041 44.051 L 242.091 44.051 C 242.382 43.432 242.839 42.906 243.411 42.531 C 244.071 42.083 244.854 41.852 245.651 41.871 C 246.314 41.853 246.971 41.99 247.571 42.271 C 248.076 42.504 248.524 42.845 248.881 43.271 C 249.227 43.71 249.482 44.213 249.631 44.751 C 249.791 45.307 249.872 45.883 249.871 46.461 L 249.871 53.631 L 247.011 53.631 L 247.011 47.321 C 247.005 46.987 246.982 46.653 246.941 46.321 C 246.898 45.971 246.79 45.632 246.621 45.321 C 246.472 45.025 246.248 44.774 245.971 44.591 C 245.639 44.385 245.252 44.284 244.861 44.301 C 244.444 44.29 244.03 44.386 243.661 44.581 C 243.341 44.753 243.061 44.992 242.841 45.281 C 242.622 45.584 242.456 45.922 242.351 46.281 C 242.241 46.648 242.183 47.028 242.181 47.411 L 242.181 53.721 L 239.321 53.721 L 239.321 42.211 Z"/>
    <path class="cls-1" d="M 260.321 48.441 L 259.671 48.441 C 259.211 48.441 258.731 48.441 258.221 48.501 C 257.743 48.537 257.27 48.624 256.811 48.761 C 256.421 48.879 256.057 49.073 255.741 49.331 C 255.455 49.583 255.297 49.95 255.311 50.331 C 255.303 50.571 255.365 50.807 255.491 51.011 C 255.606 51.194 255.764 51.345 255.951 51.451 C 256.154 51.565 256.373 51.646 256.601 51.691 C 256.835 51.74 257.073 51.763 257.311 51.761 C 259.019 51.96 260.476 50.533 260.311 48.821 L 260.321 48.441 Z M 260.321 52.211 C 259.994 52.758 259.51 53.194 258.931 53.461 C 258.258 53.798 257.514 53.966 256.761 53.951 C 256.273 53.948 255.786 53.887 255.311 53.771 C 254.82 53.658 254.352 53.458 253.931 53.181 C 253.506 52.894 253.148 52.519 252.881 52.081 C 252.588 51.571 252.443 50.989 252.461 50.401 C 252.421 49.645 252.684 48.904 253.191 48.341 C 253.708 47.826 254.338 47.439 255.031 47.211 C 255.856 46.928 256.712 46.75 257.581 46.681 C 258.511 46.591 259.421 46.541 260.311 46.541 L 260.311 46.211 C 260.356 45.58 260.058 44.972 259.531 44.621 C 258.979 44.27 258.335 44.092 257.681 44.111 C 257.081 44.113 256.488 44.243 255.941 44.491 C 255.426 44.711 254.958 45.026 254.561 45.421 L 253.081 43.681 C 253.726 43.08 254.489 42.62 255.321 42.331 C 256.151 42.027 257.028 41.871 257.911 41.871 C 258.771 41.846 259.628 41.992 260.431 42.301 C 261.032 42.547 261.566 42.931 261.991 43.421 C 262.372 43.874 262.645 44.408 262.791 44.981 C 262.947 45.541 263.024 46.12 263.021 46.701 L 263.021 53.701 L 260.321 53.701 L 260.321 52.211 Z"/>
    <rect class="cls-1" x="266.421" y="35.621" width="2.86" height="18.05"/>
    <polygon class="cls-1" points="278.881 36.771 289.791 36.771 289.791 39.391 281.891 39.391 281.891 44.021 289.341 44.021 289.341 46.551 281.891 46.551 281.891 53.671 278.881 53.671 278.881 36.771"/>
    <path class="cls-1" d="M 293.511 47.891 C 293.515 48.339 293.586 48.784 293.721 49.211 C 293.849 49.642 294.056 50.046 294.331 50.401 C 294.921 51.182 295.854 51.626 296.831 51.591 C 297.802 51.627 298.729 51.191 299.321 50.421 C 299.593 50.063 299.799 49.661 299.931 49.231 C 300.06 48.796 300.128 48.345 300.131 47.891 C 300.129 47.441 300.062 46.993 299.931 46.561 C 299.797 46.136 299.591 45.737 299.321 45.381 C 299.053 45.029 298.712 44.739 298.321 44.531 C 297.861 44.308 297.353 44.198 296.841 44.211 C 296.33 44.2 295.823 44.31 295.361 44.531 C 294.972 44.741 294.631 45.031 294.361 45.381 C 294.088 45.734 293.881 46.134 293.751 46.561 C 293.613 46.991 293.542 47.44 293.541 47.891 M 290.631 47.891 C 290.622 47.043 290.789 46.202 291.121 45.421 C 291.747 43.969 292.945 42.84 294.431 42.301 C 295.209 42.015 296.032 41.87 296.861 41.871 C 297.693 41.87 298.519 42.016 299.301 42.301 C 300.041 42.574 300.72 42.988 301.301 43.521 C 301.867 44.058 302.316 44.704 302.621 45.421 C 302.957 46.201 303.124 47.043 303.111 47.891 C 303.124 48.743 302.957 49.588 302.621 50.371 C 302.319 51.096 301.869 51.75 301.301 52.291 C 300.722 52.837 300.043 53.265 299.301 53.551 C 298.523 53.853 297.696 54.006 296.861 54.001 C 296.03 54.007 295.205 53.854 294.431 53.551 C 293.687 53.27 293.007 52.841 292.431 52.291 C 291.863 51.747 291.411 51.094 291.101 50.371 C 290.77 49.587 290.604 48.743 290.611 47.891"/>
    <path class="cls-1" d="M 316.321 53.671 L 313.601 53.671 L 313.601 51.831 L 313.551 51.831 C 313.255 52.448 312.795 52.97 312.221 53.341 C 311.565 53.79 310.785 54.02 309.991 54.001 C 309.33 54.02 308.673 53.887 308.071 53.611 C 307.05 53.112 306.298 52.191 306.011 51.091 C 305.851 50.532 305.77 49.953 305.771 49.371 L 305.771 42.211 L 308.631 42.211 L 308.631 48.561 C 308.636 48.912 308.659 49.263 308.701 49.611 C 308.744 49.96 308.849 50.299 309.011 50.611 C 309.17 50.903 309.396 51.154 309.671 51.341 C 310.005 51.544 310.391 51.642 310.781 51.621 C 311.57 51.629 312.314 51.257 312.781 50.621 C 313 50.318 313.166 49.98 313.271 49.621 C 313.378 49.254 313.432 48.874 313.431 48.491 L 313.431 42.211 L 316.321 42.211 L 316.321 53.671 Z"/>
    <path class="cls-1" d="M 319.731 42.211 L 322.451 42.211 L 322.451 44.051 C 322.746 43.432 323.207 42.906 323.781 42.531 C 324.437 42.083 325.217 41.852 326.011 41.871 C 326.674 41.851 327.332 41.988 327.931 42.271 C 328.44 42.503 328.89 42.845 329.251 43.271 C 329.597 43.71 329.852 44.213 330.001 44.751 C 330.161 45.307 330.242 45.883 330.241 46.461 L 330.241 53.631 L 327.371 53.631 L 327.371 47.321 C 327.37 46.987 327.346 46.653 327.301 46.321 C 327.262 45.971 327.156 45.632 326.991 45.321 C 326.835 45.027 326.609 44.776 326.331 44.591 C 325.999 44.384 325.612 44.283 325.221 44.301 C 324.807 44.288 324.396 44.385 324.031 44.581 C 323.709 44.75 323.429 44.989 323.211 45.281 C 322.988 45.582 322.822 45.921 322.721 46.281 C 322.611 46.648 322.553 47.028 322.551 47.411 L 322.551 53.721 L 319.691 53.721 L 319.731 42.211 Z"/>
    <path class="cls-1" d="M 335.841 47.891 C 335.845 48.345 335.912 48.796 336.041 49.231 C 336.173 49.661 336.38 50.063 336.651 50.421 C 336.919 50.776 337.26 51.07 337.651 51.281 C 338.099 51.511 338.598 51.625 339.101 51.611 C 339.591 51.624 340.075 51.514 340.511 51.291 C 340.919 51.083 341.279 50.794 341.571 50.441 C 341.869 50.095 342.096 49.694 342.241 49.261 C 342.39 48.837 342.468 48.391 342.471 47.941 C 342.468 47.485 342.39 47.032 342.241 46.601 C 342.098 46.164 341.871 45.76 341.571 45.411 C 341.277 45.059 340.917 44.767 340.511 44.551 C 340.079 44.317 339.593 44.2 339.101 44.211 C 338.598 44.198 338.099 44.311 337.651 44.541 C 337.259 44.742 336.917 45.03 336.651 45.381 C 336.382 45.737 336.175 46.136 336.041 46.561 C 335.911 46.993 335.843 47.441 335.841 47.891 M 345.321 53.671 L 342.601 53.671 L 342.601 51.951 L 342.551 51.951 C 342.164 52.614 341.585 53.143 340.891 53.471 C 340.183 53.823 339.402 54.004 338.611 54.001 C 337.801 54.017 336.998 53.85 336.261 53.511 C 335.572 53.207 334.953 52.764 334.441 52.211 C 333.946 51.639 333.566 50.977 333.321 50.261 C 333.058 49.499 332.926 48.698 332.931 47.891 C 332.923 47.087 333.059 46.288 333.331 45.531 C 333.582 44.824 333.973 44.174 334.481 43.621 C 334.974 43.079 335.573 42.643 336.241 42.341 C 336.949 42.026 337.716 41.866 338.491 41.871 C 338.967 41.866 339.442 41.926 339.901 42.051 C 340.276 42.159 340.638 42.306 340.981 42.491 C 341.27 42.653 341.538 42.847 341.781 43.071 C 341.986 43.247 342.17 43.445 342.331 43.661 L 342.401 43.661 L 342.401 35.661 L 345.321 35.661 L 345.321 53.671 Z"/>
    <path class="cls-1" d="M 355.821 48.441 L 355.171 48.441 C 354.711 48.441 354.231 48.441 353.721 48.501 C 353.243 48.537 352.77 48.624 352.311 48.761 C 351.921 48.879 351.557 49.073 351.241 49.331 C 350.955 49.583 350.797 49.95 350.811 50.331 C 350.804 50.569 350.863 50.805 350.981 51.011 C 351.102 51.192 351.263 51.343 351.451 51.451 C 351.651 51.564 351.867 51.645 352.091 51.691 C 352.328 51.739 352.569 51.763 352.811 51.761 C 354.516 51.952 355.967 50.53 355.811 48.821 L 355.821 48.441 Z M 355.871 52.211 L 355.791 52.211 C 355.471 52.76 354.989 53.197 354.411 53.461 C 353.738 53.798 352.994 53.966 352.241 53.951 C 351.753 53.948 351.266 53.887 350.791 53.771 C 350.3 53.658 349.832 53.458 349.411 53.181 C 349.004 52.889 348.664 52.514 348.411 52.081 C 348.118 51.571 347.973 50.989 347.991 50.401 C 347.951 49.645 348.214 48.904 348.721 48.341 C 349.232 47.829 349.855 47.442 350.541 47.211 C 351.365 46.927 352.222 46.749 353.091 46.681 C 354.021 46.591 354.931 46.541 355.821 46.541 L 355.821 46.211 C 355.866 45.58 355.568 44.972 355.041 44.621 C 354.489 44.27 353.845 44.092 353.191 44.111 C 352.591 44.113 351.998 44.243 351.451 44.491 C 350.936 44.711 350.468 45.026 350.071 45.421 L 348.591 43.681 C 349.238 43.075 350.004 42.612 350.841 42.321 C 351.671 42.017 352.548 41.861 353.431 41.861 C 354.291 41.836 355.148 41.982 355.951 42.291 C 356.552 42.537 357.086 42.921 357.511 43.411 C 357.892 43.864 358.165 44.398 358.311 44.971 C 358.462 45.532 358.539 46.11 358.541 46.691 L 358.541 53.691 L 355.871 53.691 L 355.871 52.211 Z"/>
    <path class="cls-1" d="M 360.001 44.501 L 360.001 42.211 L 362.001 42.211 L 362.001 38.891 L 364.821 38.891 L 364.821 42.211 L 367.681 42.211 L 367.681 44.501 L 364.821 44.501 L 364.821 49.821 C 364.806 50.26 364.898 50.696 365.091 51.091 C 365.38 51.469 365.851 51.66 366.321 51.591 C 366.529 51.59 366.737 51.57 366.941 51.531 C 367.148 51.497 367.35 51.436 367.541 51.351 L 367.631 53.591 C 367.341 53.703 367.039 53.781 366.731 53.821 C 366.401 53.876 366.066 53.903 365.731 53.901 C 365.092 53.928 364.455 53.819 363.861 53.581 C 363.416 53.389 363.027 53.086 362.731 52.701 C 362.446 52.32 362.251 51.879 362.161 51.411 C 362.05 50.899 361.997 50.376 362.001 49.851 L 362.001 44.501 L 360.001 44.501 Z"/>
    <path class="cls-1" d="M 369.811 42.211 L 372.671 42.211 L 372.671 53.671 L 369.811 53.671 L 369.811 42.211 Z M 369.401 38.321 C 369.398 37.865 369.582 37.427 369.911 37.111 C 370.26 36.77 370.733 36.586 371.221 36.601 C 371.708 36.587 372.181 36.763 372.541 37.091 C 372.896 37.4 373.095 37.851 373.081 38.321 C 373.09 38.791 372.893 39.24 372.541 39.551 C 372.179 39.876 371.707 40.051 371.221 40.041 C 370.732 40.053 370.259 39.865 369.911 39.521 C 369.583 39.209 369.398 38.775 369.401 38.321"/>
    <path class="cls-1" d="M 378.401 47.891 C 378.405 48.345 378.472 48.796 378.601 49.231 C 378.733 49.661 378.94 50.063 379.211 50.421 C 379.803 51.205 380.74 51.649 381.721 51.611 C 382.234 51.624 382.742 51.511 383.201 51.281 C 383.589 51.065 383.929 50.772 384.201 50.421 C 384.473 50.065 384.677 49.662 384.801 49.231 C 384.938 48.798 385.009 48.346 385.011 47.891 C 385.011 47.44 384.94 46.991 384.801 46.561 C 384.675 46.135 384.471 45.735 384.201 45.381 C 383.612 44.614 382.688 44.179 381.721 44.211 C 381.209 44.199 380.702 44.309 380.241 44.531 C 379.85 44.739 379.509 45.029 379.241 45.381 C 378.972 45.737 378.765 46.136 378.631 46.561 C 378.501 46.993 378.433 47.441 378.431 47.891 M 375.521 47.891 C 375.508 47.043 375.675 46.201 376.011 45.421 C 376.32 44.706 376.769 44.06 377.331 43.521 C 377.912 42.988 378.591 42.574 379.331 42.301 C 380.113 42.016 380.939 41.87 381.771 41.871 C 382.6 41.87 383.423 42.015 384.201 42.301 C 386.531 43.163 388.057 45.408 388.001 47.891 C 388.014 48.743 387.847 49.588 387.511 50.371 C 387.201 51.091 386.752 51.744 386.191 52.291 C 385.613 52.838 384.934 53.266 384.191 53.551 C 383.417 53.854 382.592 54.007 381.761 54.001 C 380.927 54.006 380.099 53.853 379.321 53.551 C 378.579 53.265 377.9 52.837 377.321 52.291 C 376.756 51.747 376.307 51.094 376.001 50.371 C 375.666 49.588 375.499 48.743 375.511 47.891"/>
    <path class="cls-1" d="M 390.721 42.211 L 393.441 42.211 L 393.441 44.051 L 393.491 44.051 C 393.779 43.43 394.237 42.903 394.811 42.531 C 395.467 42.083 396.247 41.852 397.041 41.871 C 397.707 41.852 398.368 41.989 398.971 42.271 C 399.476 42.504 399.924 42.845 400.281 43.271 C 400.627 43.71 400.882 44.213 401.031 44.751 C 401.191 45.307 401.272 45.883 401.271 46.461 L 401.271 53.631 L 398.401 53.631 L 398.401 47.321 C 398.4 46.987 398.376 46.653 398.331 46.321 C 398.296 45.97 398.191 45.63 398.021 45.321 C 397.866 45.03 397.643 44.78 397.371 44.591 C 397.039 44.385 396.652 44.284 396.261 44.301 C 395.472 44.292 394.727 44.664 394.261 45.301 C 394.038 45.602 393.872 45.941 393.771 46.301 C 393.661 46.668 393.603 47.048 393.601 47.431 L 393.601 53.741 L 390.721 53.741 L 390.721 42.211 Z"/>
    <path class="cls-1" d="M 132.811 70.721 L 130.641 70.721 L 130.641 68.431 L 132.811 68.431 L 132.811 66.741 C 132.808 66.068 132.885 65.396 133.041 64.741 C 133.181 64.143 133.439 63.578 133.801 63.081 C 134.173 62.593 134.661 62.204 135.221 61.951 C 135.921 61.649 136.679 61.506 137.441 61.531 C 137.761 61.531 138.031 61.531 138.241 61.531 C 138.464 61.56 138.684 61.604 138.901 61.661 L 138.711 64.101 C 138.544 64.05 138.374 64.01 138.201 63.981 C 138.005 63.966 137.808 63.966 137.611 63.981 C 137.262 63.965 136.915 64.048 136.611 64.221 C 136.364 64.373 136.161 64.587 136.021 64.841 C 135.89 65.106 135.799 65.39 135.751 65.681 C 135.703 65.972 135.68 66.267 135.681 66.561 L 135.681 68.421 L 138.321 68.421 L 138.321 70.711 L 135.671 70.711 L 135.671 79.881 L 132.801 79.881 L 132.811 70.721 Z"/>
    <path class="cls-1" d="M 142.321 74.111 C 142.318 74.566 142.386 75.018 142.521 75.451 C 142.647 75.883 142.854 76.287 143.131 76.641 C 143.399 76.996 143.74 77.29 144.131 77.501 C 144.587 77.74 145.097 77.857 145.611 77.841 C 146.126 77.857 146.635 77.74 147.091 77.501 C 147.481 77.288 147.822 76.995 148.091 76.641 C 148.368 76.287 148.576 75.883 148.701 75.451 C 148.837 75.018 148.904 74.566 148.901 74.111 C 148.903 73.664 148.836 73.218 148.701 72.791 C 148.573 72.363 148.366 71.963 148.091 71.611 C 147.825 71.258 147.483 70.967 147.091 70.761 C 146.63 70.54 146.123 70.43 145.611 70.441 C 145.099 70.428 144.592 70.538 144.131 70.761 C 143.739 70.967 143.398 71.258 143.131 71.611 C 142.856 71.963 142.649 72.363 142.521 72.791 C 142.387 73.218 142.319 73.664 142.321 74.111 M 139.401 74.111 C 139.394 73.263 139.56 72.422 139.891 71.641 C 140.522 70.195 141.718 69.071 143.201 68.531 C 144.774 67.958 146.498 67.958 148.071 68.531 C 149.554 69.071 150.75 70.195 151.381 71.641 C 151.712 72.422 151.879 73.263 151.871 74.111 C 151.879 74.966 151.712 75.813 151.381 76.601 C 151.072 77.324 150.619 77.977 150.051 78.521 C 149.472 79.064 148.793 79.488 148.051 79.771 C 146.486 80.385 144.746 80.385 143.181 79.771 C 142.44 79.488 141.761 79.064 141.181 78.521 C 140.613 77.977 140.161 77.324 139.851 76.601 C 139.52 75.813 139.353 74.966 139.361 74.111"/>
    <path class="cls-1" d="M 154.661 68.431 L 157.401 68.431 L 157.401 70.341 C 157.699 69.696 158.157 69.139 158.731 68.721 C 159.316 68.309 160.016 68.092 160.731 68.101 L 161.091 68.101 C 161.203 68.108 161.314 68.128 161.421 68.161 L 161.421 70.791 C 161.26 70.748 161.096 70.715 160.931 70.691 C 160.801 70.681 160.671 70.681 160.541 70.691 C 159.993 70.669 159.449 70.789 158.961 71.041 C 158.595 71.261 158.278 71.553 158.031 71.901 C 157.825 72.206 157.673 72.545 157.581 72.901 C 157.512 73.176 157.471 73.458 157.461 73.741 L 157.461 79.871 L 154.601 79.871 L 154.661 68.431 Z"/>
    <polygon class="cls-1" points="169.451 62.991 180.651 62.991 180.651 65.621 172.461 65.621 172.461 69.911 180.221 69.911 180.221 72.441 172.461 72.441 172.461 77.221 181.081 77.221 181.081 79.891 169.451 79.891 169.451 62.991"/>
    <rect class="cls-1" x="183.921" y="61.841" width="2.86" height="18.05"/>
    <path class="cls-1" d="M 198.321 73.021 C 198.32 72.682 198.266 72.344 198.161 72.021 C 198.066 71.694 197.903 71.39 197.681 71.131 C 197.443 70.871 197.154 70.663 196.831 70.521 C 196.447 70.365 196.035 70.29 195.621 70.301 C 194.824 70.28 194.048 70.554 193.441 71.071 C 192.846 71.571 192.483 72.295 192.441 73.071 L 198.321 73.021 Z M 201.181 74.311 L 201.181 74.691 C 201.191 74.818 201.191 74.945 201.181 75.071 L 192.471 75.071 C 192.498 75.466 192.607 75.851 192.791 76.201 C 192.968 76.547 193.217 76.85 193.521 77.091 C 193.822 77.337 194.159 77.532 194.521 77.671 C 194.905 77.815 195.311 77.889 195.721 77.891 C 196.348 77.908 196.97 77.77 197.531 77.491 C 198.019 77.235 198.437 76.864 198.751 76.411 L 200.661 77.931 C 199.511 79.474 197.663 80.338 195.741 80.231 C 194.903 80.24 194.069 80.098 193.281 79.811 C 192.563 79.55 191.903 79.149 191.341 78.631 C 190.781 78.105 190.341 77.464 190.051 76.751 C 189.436 75.141 189.436 73.361 190.051 71.751 C 190.337 71.022 190.773 70.361 191.331 69.811 C 191.88 69.272 192.534 68.85 193.251 68.571 C 194.016 68.275 194.831 68.126 195.651 68.131 C 196.402 68.124 197.148 68.256 197.851 68.521 C 198.515 68.78 199.116 69.179 199.611 69.691 C 200.128 70.25 200.524 70.911 200.771 71.631 C 201.059 72.505 201.198 73.421 201.181 74.341"/>
    <path class="cls-1" d="M 211.801 71.611 C 211.546 71.259 211.201 70.983 210.801 70.811 C 210.379 70.599 209.913 70.489 209.441 70.491 C 208.961 70.476 208.486 70.586 208.061 70.811 C 207.669 71.017 207.328 71.308 207.061 71.661 C 206.799 72.017 206.603 72.417 206.481 72.841 C 206.359 73.287 206.305 73.749 206.321 74.211 C 206.323 74.662 206.391 75.11 206.521 75.541 C 206.655 75.967 206.862 76.366 207.131 76.721 C 207.402 77.07 207.743 77.36 208.131 77.571 C 208.575 77.791 209.066 77.901 209.561 77.891 C 210.017 77.887 210.468 77.799 210.891 77.631 C 211.313 77.475 211.686 77.209 211.971 76.861 L 213.761 78.681 C 213.25 79.21 212.624 79.614 211.931 79.861 C 211.163 80.146 210.35 80.288 209.531 80.281 C 208.714 80.283 207.902 80.145 207.131 79.871 C 206.392 79.613 205.711 79.208 205.131 78.681 C 204.562 78.14 204.107 77.49 203.791 76.771 C 203.462 75.959 203.303 75.088 203.321 74.211 C 203.308 73.354 203.472 72.503 203.801 71.711 C 204.422 70.268 205.602 69.139 207.071 68.581 C 208.63 67.991 210.355 68.009 211.901 68.631 C 212.626 68.902 213.27 69.352 213.771 69.941 L 211.801 71.611 Z"/>
    <path class="cls-1" d="M 213.971 70.721 L 213.971 68.431 L 215.971 68.431 L 215.971 65.111 L 218.791 65.111 L 218.791 68.431 L 221.651 68.431 L 221.651 70.721 L 218.791 70.721 L 218.791 76.051 C 218.774 76.487 218.867 76.92 219.061 77.311 C 219.241 77.651 219.651 77.811 220.291 77.811 C 220.499 77.81 220.707 77.79 220.911 77.751 C 221.118 77.723 221.32 77.666 221.511 77.581 L 221.601 79.821 C 221.31 79.929 221.008 80.006 220.701 80.051 C 220.37 80.101 220.036 80.128 219.701 80.131 C 219.066 80.152 218.433 80.043 217.841 79.811 C 217.394 79.618 217.004 79.311 216.711 78.921 C 216.428 78.542 216.233 78.105 216.141 77.641 C 216.03 77.125 215.976 76.599 215.981 76.071 L 215.981 70.721 L 213.971 70.721 Z"/>
    <path class="cls-1" d="M 225.981 74.111 C 225.982 74.566 226.053 75.018 226.191 75.451 C 226.313 75.883 226.517 76.287 226.791 76.641 C 227.061 76.994 227.402 77.287 227.791 77.501 C 228.737 77.968 229.846 77.968 230.791 77.501 C 231.181 77.287 231.521 76.994 231.791 76.641 C 232.065 76.285 232.271 75.882 232.401 75.451 C 232.532 75.017 232.599 74.565 232.601 74.111 C 232.598 73.664 232.531 73.219 232.401 72.791 C 232.269 72.365 232.063 71.966 231.791 71.611 C 231.523 71.259 231.182 70.969 230.791 70.761 C 229.839 70.322 228.743 70.322 227.791 70.761 C 227.4 70.969 227.059 71.259 226.791 71.611 C 226.519 71.964 226.316 72.364 226.191 72.791 C 226.053 73.218 225.982 73.663 225.981 74.111 M 223.071 74.111 C 223.058 73.263 223.225 72.421 223.561 71.641 C 223.871 70.93 224.32 70.287 224.881 69.751 C 225.456 69.21 226.137 68.795 226.881 68.531 C 227.658 68.24 228.482 68.094 229.311 68.101 C 230.144 68.095 230.971 68.241 231.751 68.531 C 233.234 69.067 234.429 70.193 235.051 71.641 C 235.387 72.421 235.554 73.263 235.541 74.111 C 235.554 74.966 235.387 75.815 235.051 76.601 C 234.745 77.324 234.296 77.977 233.731 78.521 C 233.152 79.064 232.473 79.488 231.731 79.771 C 230.962 80.066 230.145 80.215 229.321 80.211 C 228.489 80.213 227.665 80.057 226.891 79.751 C 226.149 79.47 225.47 79.045 224.891 78.501 C 224.33 77.954 223.881 77.301 223.571 76.581 C 223.235 75.795 223.068 74.946 223.081 74.091"/>
    <path class="cls-1" d="M 238.321 68.431 L 241.071 68.431 L 241.071 70.341 C 241.373 69.696 241.834 69.138 242.411 68.721 C 242.994 68.306 243.695 68.089 244.411 68.101 L 244.761 68.101 C 244.876 68.109 244.99 68.129 245.101 68.161 L 245.101 70.791 C 244.94 70.749 244.776 70.716 244.611 70.691 C 244.478 70.682 244.344 70.682 244.211 70.691 C 243.666 70.669 243.125 70.789 242.641 71.041 C 242.271 71.255 241.953 71.549 241.711 71.901 C 241.497 72.203 241.342 72.542 241.251 72.901 C 241.182 73.176 241.141 73.458 241.131 73.741 L 241.131 79.871 L 238.321 79.871 L 238.321 68.431 Z"/>
    <path class="cls-1" d="M 253.751 74.661 L 253.101 74.661 C 252.641 74.661 252.151 74.661 251.641 74.721 C 251.165 74.755 250.695 74.846 250.241 74.991 C 249.845 75.103 249.477 75.298 249.161 75.561 C 248.876 75.814 248.719 76.181 248.731 76.561 C 248.723 76.801 248.785 77.037 248.911 77.241 C 249.029 77.424 249.191 77.576 249.381 77.681 C 249.576 77.804 249.794 77.885 250.021 77.921 C 250.258 77.973 250.499 77.999 250.741 78.001 C 251.565 78.057 252.375 77.772 252.981 77.211 C 253.511 76.624 253.788 75.851 253.751 75.061 L 253.751 74.661 Z M 253.751 78.431 L 253.681 78.431 C 253.354 78.977 252.874 79.414 252.301 79.691 C 251.623 80.024 250.876 80.192 250.121 80.181 C 249.636 80.178 249.152 80.118 248.681 80.001 C 248.189 79.885 247.722 79.682 247.301 79.401 C 246.888 79.117 246.545 78.74 246.301 78.301 C 246.005 77.792 245.86 77.21 245.881 76.621 C 245.855 75.885 246.117 75.168 246.611 74.621 C 247.132 74.088 247.773 73.686 248.481 73.451 C 249.303 73.168 250.156 72.987 251.021 72.911 C 251.951 72.821 252.861 72.781 253.761 72.781 L 253.761 72.491 C 253.803 71.863 253.505 71.261 252.981 70.911 C 252.432 70.554 251.786 70.372 251.131 70.391 C 250.531 70.391 249.937 70.52 249.391 70.771 C 248.876 71 248.405 71.318 248.001 71.711 L 246.521 69.961 C 247.174 69.358 247.943 68.896 248.781 68.601 C 249.612 68.304 250.488 68.152 251.371 68.151 C 252.232 68.121 253.089 68.267 253.891 68.581 C 255.06 69.042 255.938 70.034 256.251 71.251 C 256.401 71.813 256.478 72.391 256.481 72.971 L 256.481 79.971 L 253.801 79.971 L 253.751 78.431 Z"/>
    <rect class="cls-1" x="259.861" y="61.841" width="2.86" height="18.05"/>
    <path class="cls-1" d="M 280.931 66.521 C 280.569 66.088 280.11 65.745 279.591 65.521 C 278.717 65.097 277.721 64.998 276.781 65.241 C 276.445 65.323 276.124 65.458 275.831 65.641 C 275.544 65.826 275.302 66.072 275.121 66.361 C 274.934 66.683 274.841 67.05 274.851 67.421 C 274.838 67.77 274.921 68.116 275.091 68.421 C 275.253 68.697 275.475 68.933 275.741 69.111 C 276.052 69.32 276.388 69.488 276.741 69.611 C 277.131 69.761 277.571 69.901 278.051 70.041 C 278.531 70.181 279.151 70.421 279.731 70.641 C 280.303 70.858 280.842 71.155 281.331 71.521 C 281.825 71.894 282.234 72.368 282.531 72.911 C 282.859 73.554 283.017 74.27 282.991 74.991 C 283.007 75.809 282.836 76.62 282.491 77.361 C 282.179 78.017 281.721 78.592 281.151 79.041 C 280.557 79.503 279.877 79.842 279.151 80.041 C 278.381 80.264 277.583 80.375 276.781 80.371 C 275.679 80.372 274.587 80.165 273.561 79.761 C 272.56 79.395 271.671 78.775 270.981 77.961 L 273.131 75.961 C 273.56 76.551 274.131 77.022 274.791 77.331 C 275.413 77.644 276.096 77.814 276.791 77.831 C 277.151 77.827 277.51 77.783 277.861 77.701 C 278.22 77.616 278.559 77.463 278.861 77.251 C 279.152 77.051 279.395 76.787 279.571 76.481 C 279.765 76.126 279.862 75.726 279.851 75.321 C 279.864 74.928 279.756 74.541 279.541 74.211 C 279.315 73.904 279.03 73.645 278.701 73.451 C 278.314 73.212 277.897 73.024 277.461 72.891 L 275.951 72.381 C 275.451 72.221 274.951 72.031 274.431 71.811 C 273.928 71.592 273.462 71.295 273.051 70.931 C 272.637 70.547 272.298 70.09 272.051 69.581 C 271.779 68.951 271.65 68.268 271.671 67.581 C 271.65 66.806 271.837 66.04 272.211 65.361 C 272.561 64.749 273.042 64.223 273.621 63.821 C 274.228 63.401 274.906 63.093 275.621 62.911 C 276.355 62.712 277.111 62.611 277.871 62.611 C 278.763 62.616 279.649 62.768 280.491 63.061 C 281.343 63.352 282.126 63.815 282.791 64.421 L 280.931 66.521 Z"/>
    <path class="cls-1" d="M 283.871 68.431 L 287.051 68.431 L 290.241 76.761 L 290.321 76.761 L 293.161 68.431 L 296.161 68.431 L 290.741 82.351 C 290.554 82.834 290.33 83.302 290.071 83.751 C 289.841 84.129 289.55 84.467 289.211 84.751 C 288.862 85.038 288.462 85.255 288.031 85.391 C 287.498 85.541 286.945 85.612 286.391 85.601 C 286.151 85.616 285.911 85.616 285.671 85.601 C 285.414 85.582 285.16 85.538 284.911 85.471 L 285.151 82.991 C 285.333 83.052 285.521 83.096 285.711 83.121 C 285.884 83.135 286.058 83.135 286.231 83.121 C 286.489 83.126 286.745 83.089 286.991 83.011 C 287.192 82.945 287.373 82.832 287.521 82.681 C 287.672 82.512 287.799 82.324 287.901 82.121 C 288.011 81.891 288.131 81.631 288.261 81.331 L 288.831 79.871 L 283.871 68.431 Z"/>
    <path class="cls-1" d="M 304.111 71.491 C 303.831 71.126 303.472 70.829 303.061 70.621 C 302.619 70.373 302.119 70.246 301.611 70.251 C 301.172 70.244 300.737 70.34 300.341 70.531 C 299.959 70.711 299.731 71.111 299.771 71.531 C 299.767 71.945 300.017 72.318 300.401 72.471 C 301.002 72.708 301.62 72.895 302.251 73.031 C 302.691 73.135 303.125 73.262 303.551 73.411 C 303.981 73.564 304.385 73.78 304.751 74.051 C 305.106 74.322 305.402 74.662 305.621 75.051 C 305.853 75.488 305.967 75.977 305.951 76.471 C 305.971 77.085 305.837 77.693 305.561 78.241 C 305.312 78.716 304.951 79.124 304.511 79.431 C 304.047 79.743 303.528 79.964 302.981 80.081 C 302.392 80.222 301.787 80.293 301.181 80.291 C 300.292 80.288 299.411 80.122 298.581 79.801 C 297.782 79.504 297.063 79.024 296.481 78.401 L 298.361 76.631 C 298.697 77.051 299.12 77.392 299.601 77.631 C 300.126 77.903 300.71 78.04 301.301 78.031 C 301.513 78.032 301.724 78.008 301.931 77.961 C 302.141 77.918 302.343 77.844 302.531 77.741 C 302.708 77.636 302.858 77.493 302.971 77.321 C 303.088 77.125 303.147 76.9 303.141 76.671 C 303.152 76.233 302.888 75.834 302.481 75.671 C 301.838 75.396 301.168 75.188 300.481 75.051 C 300.057 74.955 299.639 74.832 299.231 74.681 C 298.839 74.539 298.471 74.337 298.141 74.081 C 297.823 73.835 297.563 73.52 297.381 73.161 C 297.171 72.74 297.072 72.272 297.091 71.801 C 297.077 71.227 297.211 70.658 297.481 70.151 C 297.726 69.705 298.068 69.319 298.481 69.021 C 298.929 68.724 299.422 68.501 299.941 68.361 C 300.487 68.221 301.048 68.15 301.611 68.151 C 302.437 68.149 303.257 68.295 304.031 68.581 C 304.77 68.829 305.423 69.284 305.911 69.891 L 304.111 71.491 Z"/>
    <path class="cls-1" d="M 306.791 70.721 L 306.791 68.431 L 308.791 68.431 L 308.791 65.111 L 311.611 65.111 L 311.611 68.431 L 314.471 68.431 L 314.471 70.721 L 311.611 70.721 L 311.611 76.051 C 311.594 76.487 311.687 76.92 311.881 77.311 C 312.071 77.651 312.481 77.811 313.111 77.811 C 313.319 77.81 313.527 77.79 313.731 77.751 C 313.939 77.726 314.141 77.669 314.331 77.581 L 314.431 79.821 C 314.136 79.927 313.831 80.004 313.521 80.051 C 313.19 80.101 312.856 80.128 312.521 80.131 C 311.883 80.153 311.246 80.044 310.651 79.811 C 310.205 79.615 309.817 79.309 309.521 78.921 C 309.238 78.542 309.043 78.105 308.951 77.641 C 308.84 77.125 308.786 76.599 308.791 76.071 L 308.791 70.721 L 306.791 70.721 Z"/>
    <path class="cls-1" d="M 324.621 73.021 C 324.62 72.682 324.566 72.344 324.461 72.021 C 324.367 71.692 324.199 71.388 323.971 71.131 C 323.739 70.869 323.452 70.661 323.131 70.521 C 322.747 70.365 322.335 70.29 321.921 70.301 C 321.124 70.28 320.348 70.554 319.741 71.071 C 319.146 71.571 318.783 72.295 318.741 73.071 L 324.621 73.021 Z M 327.481 74.311 L 327.481 74.691 C 327.491 74.818 327.491 74.945 327.481 75.071 L 318.771 75.071 C 318.798 75.466 318.907 75.851 319.091 76.201 C 319.268 76.547 319.517 76.85 319.821 77.091 C 320.122 77.337 320.459 77.532 320.821 77.671 C 321.205 77.815 321.611 77.889 322.021 77.891 C 322.648 77.908 323.27 77.77 323.831 77.491 C 324.319 77.235 324.737 76.864 325.051 76.411 L 326.961 77.931 C 325.811 79.474 323.963 80.338 322.041 80.231 C 321.203 80.24 320.369 80.098 319.581 79.811 C 318.863 79.55 318.203 79.149 317.641 78.631 C 317.081 78.105 316.641 77.464 316.351 76.751 C 315.736 75.141 315.736 73.361 316.351 71.751 C 316.637 71.024 317.069 70.364 317.621 69.811 C 318.176 69.274 318.832 68.852 319.551 68.571 C 320.316 68.275 321.131 68.126 321.951 68.131 C 322.702 68.124 323.448 68.256 324.151 68.521 C 324.815 68.781 325.415 69.18 325.911 69.691 C 326.428 70.25 326.824 70.911 327.071 71.631 C 327.359 72.505 327.498 73.421 327.481 74.341"/>
    <path class="cls-1" d="M 343.931 68.101 C 344.593 68.083 345.249 68.216 345.851 68.491 C 346.358 68.727 346.808 69.068 347.171 69.491 C 347.517 69.93 347.772 70.433 347.921 70.971 C 348.081 71.531 348.162 72.11 348.161 72.691 L 348.161 79.851 L 345.321 79.851 L 345.321 73.501 C 345.319 73.167 345.296 72.833 345.251 72.501 C 345.212 72.151 345.106 71.812 344.941 71.501 C 344.782 71.209 344.556 70.959 344.281 70.771 C 343.948 70.568 343.561 70.471 343.171 70.491 C 342.773 70.479 342.379 70.576 342.031 70.771 C 341.718 70.958 341.448 71.211 341.241 71.511 C 341.03 71.813 340.877 72.153 340.791 72.511 C 340.692 72.873 340.642 73.246 340.641 73.621 L 340.641 79.871 L 337.781 79.871 L 337.781 72.951 C 337.803 72.319 337.625 71.696 337.271 71.171 C 336.882 70.682 336.274 70.419 335.651 70.471 C 335.261 70.462 334.875 70.555 334.531 70.741 C 334.224 70.912 333.96 71.151 333.761 71.441 C 333.555 71.747 333.399 72.085 333.301 72.441 C 333.202 72.81 333.151 73.19 333.151 73.571 L 333.151 79.871 L 330.281 79.871 L 330.281 68.431 L 333.001 68.431 L 333.001 70.271 L 333.051 70.271 C 333.183 69.979 333.354 69.706 333.561 69.461 C 333.784 69.196 334.043 68.964 334.331 68.771 C 334.636 68.556 334.974 68.39 335.331 68.281 C 335.743 68.158 336.171 68.097 336.601 68.101 C 337.385 68.072 338.159 68.281 338.821 68.701 C 339.408 69.092 339.878 69.635 340.181 70.271 C 340.529 69.601 341.059 69.043 341.711 68.661 C 342.394 68.276 343.168 68.083 343.951 68.101"/>
    <path class="cls-1" d="M 357.781 71.491 C 357.511 71.136 357.171 70.84 356.781 70.621 C 356.339 70.359 355.835 70.218 355.321 70.211 C 354.882 70.205 354.447 70.301 354.051 70.491 C 353.669 70.671 353.441 71.071 353.481 71.491 C 353.477 71.905 353.727 72.278 354.111 72.431 C 354.712 72.667 355.331 72.854 355.961 72.991 C 356.391 73.091 356.831 73.221 357.271 73.371 C 357.697 73.526 358.097 73.742 358.461 74.011 C 358.822 74.276 359.119 74.617 359.331 75.011 C 359.563 75.448 359.677 75.937 359.661 76.431 C 359.681 77.045 359.547 77.653 359.271 78.201 C 359.036 78.671 358.693 79.079 358.271 79.391 C 357.807 79.703 357.288 79.924 356.741 80.041 C 356.152 80.182 355.547 80.253 354.941 80.251 C 354.052 80.248 353.171 80.082 352.341 79.761 C 351.542 79.464 350.823 78.984 350.241 78.361 L 352.121 76.591 C 352.459 77.008 352.882 77.349 353.361 77.591 C 353.886 77.863 354.47 78 355.061 77.991 C 355.273 77.993 355.485 77.969 355.691 77.921 C 355.902 77.881 356.104 77.806 356.291 77.701 C 356.468 77.596 356.618 77.453 356.731 77.281 C 356.848 77.085 356.907 76.86 356.901 76.631 C 356.912 76.193 356.648 75.794 356.241 75.631 C 355.598 75.354 354.928 75.146 354.241 75.011 C 353.817 74.915 353.399 74.792 352.991 74.641 C 352.599 74.499 352.231 74.297 351.901 74.041 C 351.583 73.795 351.323 73.48 351.141 73.121 C 350.936 72.698 350.837 72.231 350.851 71.761 C 350.835 71.185 350.973 70.616 351.251 70.111 C 351.492 69.662 351.835 69.275 352.251 68.981 C 352.699 68.684 353.192 68.461 353.711 68.321 C 354.257 68.181 354.818 68.11 355.381 68.111 C 356.207 68.109 357.027 68.254 357.801 68.541 C 358.542 68.785 359.196 69.241 359.681 69.851 L 357.781 71.491 Z"/>
    <rect class="cls-1" x="55.211" y="21.651" width="4.11" height="16.73"/>
    <polygon class="cls-1" points="55.731 44.871 55.731 48.321 62.711 48.321 62.711 51.651 55.731 51.651 55.731 58.151 51.701 58.151 51.701 41.421 63.261 41.421 63.261 44.871 55.731 44.871"/>
    <polygon class="cls-1" points="51.761 77.911 51.761 61.181 63.131 61.181 63.131 64.591 55.701 64.591 55.701 67.751 62.721 67.751 62.721 70.991 55.701 70.991 55.701 74.461 63.551 74.461 63.551 77.911 51.761 77.911"/>
    <path class="cls-1" d="M 60.881 85.721 C 60.513 85.269 60.044 84.909 59.511 84.671 C 58.999 84.424 58.44 84.291 57.871 84.281 C 57.596 84.28 57.322 84.304 57.051 84.351 C 56.787 84.396 56.533 84.487 56.301 84.621 C 56.083 84.757 55.893 84.934 55.741 85.141 C 55.581 85.384 55.5 85.671 55.511 85.961 C 55.502 86.21 55.565 86.457 55.691 86.671 C 55.824 86.873 56.002 87.041 56.211 87.161 C 56.476 87.315 56.754 87.445 57.041 87.551 L 58.111 87.921 C 58.691 88.111 59.281 88.321 59.901 88.541 C 60.507 88.766 61.079 89.072 61.601 89.451 C 62.112 89.832 62.54 90.311 62.861 90.861 C 63.215 91.499 63.388 92.222 63.361 92.951 C 63.38 93.814 63.199 94.67 62.831 95.451 C 62.489 96.133 61.993 96.726 61.381 97.181 C 60.767 97.653 60.067 98.003 59.321 98.211 C 58.537 98.431 57.726 98.542 56.911 98.541 C 55.713 98.543 54.524 98.33 53.401 97.911 C 52.338 97.54 51.374 96.931 50.581 96.131 L 53.251 93.431 C 53.702 93.966 54.261 94.399 54.891 94.701 C 55.509 95.026 56.194 95.2 56.891 95.211 C 57.187 95.213 57.483 95.18 57.771 95.111 C 58.04 95.06 58.295 94.955 58.521 94.801 C 58.735 94.66 58.911 94.468 59.031 94.241 C 59.165 93.978 59.23 93.686 59.221 93.391 C 59.229 93.104 59.149 92.822 58.991 92.581 C 58.805 92.34 58.574 92.136 58.311 91.981 C 57.962 91.778 57.594 91.611 57.211 91.481 L 55.721 91.001 C 55.179 90.831 54.648 90.627 54.131 90.391 C 53.624 90.16 53.155 89.854 52.741 89.481 C 52.323 89.101 51.984 88.642 51.741 88.131 C 51.197 86.73 51.273 85.163 51.951 83.821 C 52.32 83.17 52.833 82.613 53.451 82.191 C 54.089 81.755 54.801 81.436 55.551 81.251 C 56.327 81.06 57.122 80.963 57.921 80.961 C 58.917 80.968 59.904 81.144 60.841 81.481 C 61.805 81.811 62.693 82.331 63.451 83.011 L 60.881 85.721 Z"/>
    <path class="cls-2" d="M 105.671 58.381 C 104.872 74.563 96.48 89.417 83.031 98.451 C 83.931 96.681 84.751 94.921 85.481 93.191 C 89.004 84.904 91.289 76.144 92.261 67.191 C 92.261 66.331 92.351 65.481 92.381 64.621 C 95.164 63.555 97.873 62.306 100.491 60.881 C 101.191 60.481 105.491 57.981 105.741 57.401 L 105.671 58.381 Z M 78.021 101.321 C 66.767 106.915 53.718 107.673 41.891 103.421 L 38.601 102.091 L 37.821 101.721 C 37.821 101.721 29.611 90.211 27.201 67.371 C 28.155 67.665 29.155 67.945 30.201 68.211 L 31.911 68.601 L 35.261 69.261 C 39.232 69.967 43.238 70.457 47.261 70.731 L 47.261 68.481 C 43.661 68.311 40.141 67.971 36.751 67.481 L 35.121 67.211 L 33.951 67.011 L 31.781 66.601 C 30.161 66.281 28.571 65.911 27.021 65.511 C 26.868 64.445 26.788 63.369 26.781 62.291 C 26.848 53.358 28.382 44.497 31.321 36.061 C 34.431 36.781 36.821 37.181 36.821 37.181 L 37.651 37.311 C 40.751 37.791 43.948 38.125 47.241 38.311 L 47.241 36.701 C 42.441 36.391 35.781 35.471 35.781 35.471 C 34.561 35.281 33.201 35.061 31.781 34.811 C 37.511 19.811 46.351 13.011 48.251 11.691 C 54.466 13.388 61.017 13.426 67.251 11.801 C 73.391 15.801 78.631 22.471 82.371 30.801 C 77.568 32.787 72.571 34.265 67.461 35.211 L 67.461 37.481 C 72.757 36.745 77.971 35.507 83.031 33.781 L 83.501 33.621 C 86.839 42.375 88.518 51.673 88.451 61.041 L 88.451 62.041 C 81.706 64.75 74.653 66.618 67.451 67.601 L 67.451 70.431 C 74.237 69.759 80.938 68.402 87.451 66.381 L 88.271 66.121 L 88.321 66.121 C 87.947 72.798 86.731 79.4 84.701 85.771 C 83.449 89.687 81.922 93.51 80.131 97.211 C 79.391 98.751 78.671 100.121 78.021 101.301 M 9.481 60.431 L 9.321 58.611 C 9.251 57.511 9.211 56.401 9.211 55.281 C 9.2 46.66 11.298 38.166 15.321 30.541 L 15.611 29.991 C 21.014 19.93 29.751 12.063 40.321 7.741 C 40.541 7.931 40.771 8.121 41.021 8.301 C 43.006 9.722 45.218 10.797 47.561 11.481 C 40.381 14.831 32.821 21.591 27.951 34.071 C 25.881 33.653 23.837 33.112 21.831 32.451 C 21.221 32.251 20.631 32.031 20.031 31.811 L 20.031 32.261 C 22.409 33.49 24.918 34.446 27.511 35.111 C 25.527 40.656 24.185 46.411 23.511 52.261 C 23.006 56.287 22.842 60.348 23.021 64.401 C 20.058 63.492 17.152 62.404 14.321 61.141 C 14.321 61.361 14.321 61.591 14.321 61.811 C 17.107 63.458 20.035 64.851 23.071 65.971 C 23.834 77.508 27.089 88.743 32.611 98.901 C 19.367 90.334 10.808 76.143 9.411 60.431 M 42.131 7.051 C 51.18 3.859 60.998 3.566 70.221 6.211 C 70.651 6.371 71.571 6.831 69.961 7.661 C 67.972 8.593 65.886 9.3 63.741 9.771 C 60.971 10.37 58.145 10.668 55.311 10.661 C 53.764 10.659 52.218 10.569 50.681 10.391 L 50.401 10.391 C 47.013 10.023 43.706 9.108 40.611 7.681 L 42.251 7.061 M 75.741 8.141 C 82.634 11.111 88.742 15.644 93.581 21.381 C 93.721 21.681 94.481 23.621 91.051 26.241 C 89.191 27.468 87.25 28.567 85.241 29.531 L 85.031 29.131 C 80.921 21.301 75.381 15.251 69.031 11.881 L 68.341 11.531 C 69.711 11.075 71.042 10.51 72.321 9.841 L 75.741 8.141 Z M 97.321 26.521 L 97.671 27.051 L 97.751 27.181 C 101.707 33.484 104.275 40.558 105.281 47.931 C 105.626 50.052 104.744 52.185 103.001 53.441 L 102.391 53.941 C 99.301 56.384 95.946 58.474 92.391 60.171 C 92.391 59.505 92.371 58.865 92.331 58.251 C 92.015 49.347 90.038 40.579 86.501 32.401 C 89.534 31.226 92.439 29.745 95.171 27.981 C 96.531 27.061 97.281 26.471 97.281 26.471 M 57.321 2.701 C 17.507 2.704 -8.418 44.567 9.321 80.211 C 10.101 81.891 10.961 83.511 11.891 85.091 C 12.803 86.463 13.805 87.773 14.891 89.011 C 29.773 108.322 55.809 115.163 78.261 105.661 C 87.072 102.236 94.76 96.434 100.471 88.901 C 103.986 84.002 106.66 78.55 108.381 72.771 C 119.521 38.161 93.74 2.725 57.381 2.671"/>
</svg>
